<mxfile host="app.diagrams.net" modified="2020-12-10T19:13:26.611Z" agent="5.0 (Windows)" etag="0O3ZqTmr7qTKdyTN6xen" version="13.10.9" type="github">
  <diagram name="Page-1" id="0783ab3e-0a74-02c8-0abd-f7b4e66b4bec">
    <mxGraphModel dx="942" dy="1683" grid="1" gridSize="10" guides="1" tooltips="1" connect="1" arrows="1" fold="1" page="1" pageScale="1" pageWidth="850" pageHeight="1100" background="#ffffff" math="0" shadow="0">
      <root>
        <mxCell id="0" />
        <mxCell id="1" parent="0" />
        <mxCell id="a6HV5OsHGUTdc41z4olO-1" value="GunBuilder" style="swimlane;whiteSpace=wrap" parent="1" vertex="1">
          <mxGeometry x="30" y="-980" width="320" height="880" as="geometry" />
        </mxCell>
        <mxCell id="a6HV5OsHGUTdc41z4olO-2" value="" style="ellipse;shape=startState;fillColor=#000000;strokeColor=#ff0000;" parent="a6HV5OsHGUTdc41z4olO-1" vertex="1">
          <mxGeometry x="100" y="40" width="30" height="30" as="geometry" />
        </mxCell>
        <mxCell id="a6HV5OsHGUTdc41z4olO-3" value="" style="edgeStyle=elbowEdgeStyle;elbow=horizontal;verticalAlign=bottom;endArrow=open;endSize=8;strokeColor=#FF0000;endFill=1;rounded=0;entryX=-0.2;entryY=0.567;entryDx=0;entryDy=0;entryPerimeter=0;" parent="a6HV5OsHGUTdc41z4olO-1" source="a6HV5OsHGUTdc41z4olO-2" target="a6HV5OsHGUTdc41z4olO-39" edge="1">
          <mxGeometry x="100" y="40" as="geometry">
            <mxPoint x="10" y="250" as="targetPoint" />
            <Array as="points">
              <mxPoint x="20" y="170" />
            </Array>
          </mxGeometry>
        </mxCell>
        <mxCell id="a6HV5OsHGUTdc41z4olO-39" value="" style="html=1;points=[];perimeter=orthogonalPerimeter;fillColor=#000000;strokeColor=none;" parent="a6HV5OsHGUTdc41z4olO-1" vertex="1">
          <mxGeometry x="50" y="150" width="5" height="280" as="geometry" />
        </mxCell>
        <mxCell id="a6HV5OsHGUTdc41z4olO-40" value="" style="endArrow=classic;html=1;strokeColor=#FF0000;" parent="a6HV5OsHGUTdc41z4olO-1" edge="1">
          <mxGeometry width="50" height="50" relative="1" as="geometry">
            <mxPoint x="57" y="184" as="sourcePoint" />
            <mxPoint x="100" y="184" as="targetPoint" />
          </mxGeometry>
        </mxCell>
        <mxCell id="a6HV5OsHGUTdc41z4olO-60" style="edgeStyle=orthogonalEdgeStyle;rounded=0;orthogonalLoop=1;jettySize=auto;html=1;entryX=-0.2;entryY=0.1;entryDx=0;entryDy=0;entryPerimeter=0;strokeColor=#FF0000;" parent="a6HV5OsHGUTdc41z4olO-1" source="a6HV5OsHGUTdc41z4olO-41" target="a6HV5OsHGUTdc41z4olO-59" edge="1">
          <mxGeometry relative="1" as="geometry" />
        </mxCell>
        <mxCell id="a6HV5OsHGUTdc41z4olO-41" value="" style="rounded=1;whiteSpace=wrap;html=1;" parent="a6HV5OsHGUTdc41z4olO-1" vertex="1">
          <mxGeometry x="100" y="160" width="130" height="40" as="geometry" />
        </mxCell>
        <mxCell id="a6HV5OsHGUTdc41z4olO-44" value="connect FingerPrintScanner" style="text;html=1;strokeColor=none;fillColor=none;align=center;verticalAlign=middle;whiteSpace=wrap;rounded=0;" parent="a6HV5OsHGUTdc41z4olO-1" vertex="1">
          <mxGeometry x="145" y="170" width="40" height="20" as="geometry" />
        </mxCell>
        <mxCell id="a6HV5OsHGUTdc41z4olO-61" style="edgeStyle=orthogonalEdgeStyle;rounded=0;orthogonalLoop=1;jettySize=auto;html=1;entryX=-0.2;entryY=0.3;entryDx=0;entryDy=0;entryPerimeter=0;strokeColor=#FF0000;" parent="a6HV5OsHGUTdc41z4olO-1" source="a6HV5OsHGUTdc41z4olO-45" target="a6HV5OsHGUTdc41z4olO-59" edge="1">
          <mxGeometry relative="1" as="geometry" />
        </mxCell>
        <mxCell id="a6HV5OsHGUTdc41z4olO-45" value="" style="rounded=1;whiteSpace=wrap;html=1;" parent="a6HV5OsHGUTdc41z4olO-1" vertex="1">
          <mxGeometry x="100" y="220" width="130" height="40" as="geometry" />
        </mxCell>
        <mxCell id="a6HV5OsHGUTdc41z4olO-46" value="connect MagazineLevelSensor" style="text;html=1;strokeColor=none;fillColor=none;align=center;verticalAlign=middle;whiteSpace=wrap;rounded=0;" parent="a6HV5OsHGUTdc41z4olO-1" vertex="1">
          <mxGeometry x="150" y="230" width="40" height="20" as="geometry" />
        </mxCell>
        <mxCell id="a6HV5OsHGUTdc41z4olO-48" value="" style="endArrow=classic;html=1;strokeColor=#FF0000;" parent="a6HV5OsHGUTdc41z4olO-1" edge="1">
          <mxGeometry width="50" height="50" relative="1" as="geometry">
            <mxPoint x="60" y="300" as="sourcePoint" />
            <mxPoint x="100" y="300" as="targetPoint" />
            <Array as="points">
              <mxPoint x="80" y="300" />
            </Array>
          </mxGeometry>
        </mxCell>
        <mxCell id="a6HV5OsHGUTdc41z4olO-62" style="edgeStyle=orthogonalEdgeStyle;rounded=0;orthogonalLoop=1;jettySize=auto;html=1;entryX=-0.2;entryY=0.5;entryDx=0;entryDy=0;entryPerimeter=0;strokeColor=#FF0000;" parent="a6HV5OsHGUTdc41z4olO-1" source="a6HV5OsHGUTdc41z4olO-49" target="a6HV5OsHGUTdc41z4olO-59" edge="1">
          <mxGeometry relative="1" as="geometry" />
        </mxCell>
        <mxCell id="a6HV5OsHGUTdc41z4olO-49" value="" style="rounded=1;whiteSpace=wrap;html=1;" parent="a6HV5OsHGUTdc41z4olO-1" vertex="1">
          <mxGeometry x="100" y="280" width="130" height="40" as="geometry" />
        </mxCell>
        <mxCell id="a6HV5OsHGUTdc41z4olO-50" value="&lt;div&gt;connect &lt;br&gt;&lt;/div&gt;&lt;div&gt;LcdDisplay&lt;br&gt;&lt;/div&gt;" style="text;html=1;strokeColor=none;fillColor=none;align=center;verticalAlign=middle;whiteSpace=wrap;rounded=0;" parent="a6HV5OsHGUTdc41z4olO-1" vertex="1">
          <mxGeometry x="145" y="290" width="40" height="20" as="geometry" />
        </mxCell>
        <mxCell id="a6HV5OsHGUTdc41z4olO-51" value="" style="endArrow=classic;html=1;strokeColor=#FF0000;" parent="a6HV5OsHGUTdc41z4olO-1" edge="1">
          <mxGeometry width="50" height="50" relative="1" as="geometry">
            <mxPoint x="60" y="350" as="sourcePoint" />
            <mxPoint x="100" y="350" as="targetPoint" />
            <Array as="points" />
          </mxGeometry>
        </mxCell>
        <mxCell id="a6HV5OsHGUTdc41z4olO-63" style="edgeStyle=orthogonalEdgeStyle;rounded=0;orthogonalLoop=1;jettySize=auto;html=1;entryX=0.2;entryY=0.667;entryDx=0;entryDy=0;entryPerimeter=0;strokeColor=#FF0000;" parent="a6HV5OsHGUTdc41z4olO-1" source="a6HV5OsHGUTdc41z4olO-52" target="a6HV5OsHGUTdc41z4olO-59" edge="1">
          <mxGeometry relative="1" as="geometry" />
        </mxCell>
        <mxCell id="a6HV5OsHGUTdc41z4olO-52" value="&lt;div&gt;connect &lt;br&gt;&lt;/div&gt;&lt;div&gt;RadioModule&lt;br&gt;&lt;/div&gt;" style="rounded=1;whiteSpace=wrap;html=1;" parent="a6HV5OsHGUTdc41z4olO-1" vertex="1">
          <mxGeometry x="100" y="330" width="130" height="40" as="geometry" />
        </mxCell>
        <mxCell id="a6HV5OsHGUTdc41z4olO-54" value="" style="endArrow=classic;html=1;strokeColor=#FF0000;" parent="a6HV5OsHGUTdc41z4olO-1" edge="1">
          <mxGeometry width="50" height="50" relative="1" as="geometry">
            <mxPoint x="55" y="400" as="sourcePoint" />
            <mxPoint x="100" y="400" as="targetPoint" />
          </mxGeometry>
        </mxCell>
        <mxCell id="a6HV5OsHGUTdc41z4olO-64" style="edgeStyle=orthogonalEdgeStyle;rounded=0;orthogonalLoop=1;jettySize=auto;html=1;entryX=0;entryY=0.833;entryDx=0;entryDy=0;entryPerimeter=0;strokeColor=#FF0000;" parent="a6HV5OsHGUTdc41z4olO-1" source="a6HV5OsHGUTdc41z4olO-56" target="a6HV5OsHGUTdc41z4olO-59" edge="1">
          <mxGeometry relative="1" as="geometry" />
        </mxCell>
        <mxCell id="a6HV5OsHGUTdc41z4olO-56" value="&lt;div&gt;connect &lt;br&gt;&lt;/div&gt;&lt;div&gt;BatteryLevelSensor&lt;br&gt;&lt;/div&gt;" style="rounded=1;whiteSpace=wrap;html=1;" parent="a6HV5OsHGUTdc41z4olO-1" vertex="1">
          <mxGeometry x="100" y="380" width="130" height="40" as="geometry" />
        </mxCell>
        <mxCell id="a6HV5OsHGUTdc41z4olO-59" value="" style="html=1;points=[];perimeter=orthogonalPerimeter;fillColor=#000000;strokeColor=none;" parent="a6HV5OsHGUTdc41z4olO-1" vertex="1">
          <mxGeometry x="270" y="150" width="5" height="300" as="geometry" />
        </mxCell>
        <mxCell id="a6HV5OsHGUTdc41z4olO-10" value="Policeman" style="swimlane;whiteSpace=wrap" parent="1" vertex="1">
          <mxGeometry x="350" y="-980" width="240" height="880" as="geometry" />
        </mxCell>
        <mxCell id="a6HV5OsHGUTdc41z4olO-72" value="Take first fingerprint " style="rounded=1;whiteSpace=wrap;html=1;" parent="a6HV5OsHGUTdc41z4olO-10" vertex="1">
          <mxGeometry x="75" y="520" width="120" height="60" as="geometry" />
        </mxCell>
        <mxCell id="a6HV5OsHGUTdc41z4olO-74" value="" style="shape=offPageConnector;whiteSpace=wrap;html=1;rotation=-90;" parent="a6HV5OsHGUTdc41z4olO-10" vertex="1">
          <mxGeometry x="125" y="590" width="50" height="130" as="geometry" />
        </mxCell>
        <mxCell id="a6HV5OsHGUTdc41z4olO-75" value="Pull request to local distributor" style="text;html=1;strokeColor=none;fillColor=none;align=center;verticalAlign=middle;whiteSpace=wrap;rounded=0;" parent="a6HV5OsHGUTdc41z4olO-10" vertex="1">
          <mxGeometry x="85" y="645" width="100" height="20" as="geometry" />
        </mxCell>
        <mxCell id="a6HV5OsHGUTdc41z4olO-73" style="edgeStyle=orthogonalEdgeStyle;rounded=0;orthogonalLoop=1;jettySize=auto;html=1;strokeColor=#FF0000;" parent="a6HV5OsHGUTdc41z4olO-10" edge="1">
          <mxGeometry relative="1" as="geometry">
            <mxPoint x="125" y="632" as="targetPoint" />
            <mxPoint x="125" y="584" as="sourcePoint" />
          </mxGeometry>
        </mxCell>
        <mxCell id="a6HV5OsHGUTdc41z4olO-83" value="Ready to use" style="rounded=1;whiteSpace=wrap;html=1;" parent="a6HV5OsHGUTdc41z4olO-10" vertex="1">
          <mxGeometry x="65" y="760" width="120" height="40" as="geometry" />
        </mxCell>
        <mxCell id="a6HV5OsHGUTdc41z4olO-33" value="" style="ellipse;shape=endState;fillColor=#000000;strokeColor=#ff0000" parent="a6HV5OsHGUTdc41z4olO-10" vertex="1">
          <mxGeometry x="105" y="830" width="30" height="30" as="geometry" />
        </mxCell>
        <mxCell id="a6HV5OsHGUTdc41z4olO-34" value="" style="endArrow=open;strokeColor=#FF0000;endFill=1;rounded=0" parent="a6HV5OsHGUTdc41z4olO-10" edge="1">
          <mxGeometry relative="1" as="geometry">
            <mxPoint x="120" y="800" as="sourcePoint" />
            <mxPoint x="120" y="830" as="targetPoint" />
          </mxGeometry>
        </mxCell>
        <mxCell id="a6HV5OsHGUTdc41z4olO-69" value="" style="rounded=1;whiteSpace=wrap;html=1;" parent="a6HV5OsHGUTdc41z4olO-10" vertex="1">
          <mxGeometry x="75" y="370" width="120" height="60" as="geometry" />
        </mxCell>
        <mxCell id="a6HV5OsHGUTdc41z4olO-70" value="Turn on the gun" style="text;html=1;strokeColor=none;fillColor=none;align=center;verticalAlign=middle;whiteSpace=wrap;rounded=0;" parent="a6HV5OsHGUTdc41z4olO-10" vertex="1">
          <mxGeometry x="95" y="390" width="100" height="20" as="geometry" />
        </mxCell>
        <mxCell id="a6HV5OsHGUTdc41z4olO-71" style="edgeStyle=orthogonalEdgeStyle;rounded=0;orthogonalLoop=1;jettySize=auto;html=1;strokeColor=#FF0000;exitX=0.5;exitY=1;exitDx=0;exitDy=0;entryX=0.5;entryY=0;entryDx=0;entryDy=0;" parent="a6HV5OsHGUTdc41z4olO-10" source="a6HV5OsHGUTdc41z4olO-69" target="a6HV5OsHGUTdc41z4olO-72" edge="1">
          <mxGeometry relative="1" as="geometry">
            <mxPoint x="70" y="550" as="targetPoint" />
          </mxGeometry>
        </mxCell>
        <mxCell id="a6HV5OsHGUTdc41z4olO-29" value="Local Distributor" style="swimlane;whiteSpace=wrap" parent="1" vertex="1">
          <mxGeometry x="590" y="-980" width="240" height="880" as="geometry" />
        </mxCell>
        <mxCell id="a6HV5OsHGUTdc41z4olO-81" value="Add Policeman" style="rounded=1;whiteSpace=wrap;html=1;" parent="a6HV5OsHGUTdc41z4olO-29" vertex="1">
          <mxGeometry x="70" y="640" width="110" height="40" as="geometry" />
        </mxCell>
        <mxCell id="a6HV5OsHGUTdc41z4olO-43" value="" style="endArrow=classic;html=1;strokeColor=#FF0000;" parent="1" edge="1">
          <mxGeometry width="50" height="50" relative="1" as="geometry">
            <mxPoint x="87" y="-740" as="sourcePoint" />
            <mxPoint x="130" y="-740" as="targetPoint" />
          </mxGeometry>
        </mxCell>
        <mxCell id="a6HV5OsHGUTdc41z4olO-80" value="" style="endArrow=classic;html=1;strokeColor=#FF0000;exitX=0.5;exitY=1;exitDx=0;exitDy=0;" parent="1" source="a6HV5OsHGUTdc41z4olO-74" edge="1">
          <mxGeometry width="50" height="50" relative="1" as="geometry">
            <mxPoint x="570" y="-330" as="sourcePoint" />
            <mxPoint x="660" y="-325" as="targetPoint" />
          </mxGeometry>
        </mxCell>
        <mxCell id="a6HV5OsHGUTdc41z4olO-84" style="edgeStyle=orthogonalEdgeStyle;rounded=0;orthogonalLoop=1;jettySize=auto;html=1;exitX=0.5;exitY=1;exitDx=0;exitDy=0;entryX=0.5;entryY=0;entryDx=0;entryDy=0;strokeColor=#FF0000;" parent="1" source="a6HV5OsHGUTdc41z4olO-81" target="a6HV5OsHGUTdc41z4olO-83" edge="1">
          <mxGeometry relative="1" as="geometry">
            <Array as="points">
              <mxPoint x="715" y="-260" />
              <mxPoint x="475" y="-260" />
            </Array>
          </mxGeometry>
        </mxCell>
        <mxCell id="a6HV5OsHGUTdc41z4olO-85" value="&lt;font style=&quot;font-size: 18px&quot;&gt;&lt;b&gt;&lt;font style=&quot;font-size: 18px&quot;&gt;Installation&lt;/font&gt;&lt;/b&gt;&lt;/font&gt;" style="text;html=1;align=center;verticalAlign=middle;resizable=0;points=[];autosize=1;" parent="1" vertex="1">
          <mxGeometry x="70" y="-1040" width="110" height="20" as="geometry" />
        </mxCell>
        <mxCell id="i4ZXG_g-jhPeFtlazNPo-4" style="edgeStyle=orthogonalEdgeStyle;rounded=0;orthogonalLoop=1;jettySize=auto;html=1;entryX=0.5;entryY=0;entryDx=0;entryDy=0;strokeColor=#FF0000;" parent="1" source="a6HV5OsHGUTdc41z4olO-59" target="a6HV5OsHGUTdc41z4olO-69" edge="1">
          <mxGeometry relative="1" as="geometry" />
        </mxCell>
      </root>
    </mxGraphModel>
  </diagram>
</mxfile>
